<?xml version="1.0" encoding="UTF-8"?>
<svg width="980px" height="605px" viewBox="0 0 980 605" version="1.1" xmlns="http://www.w3.org/2000/svg" xmlns:xlink="http://www.w3.org/1999/xlink">
    <!-- Generator: Sketch 49.1 (51147) - http://www.bohemiancoding.com/sketch -->
    <title>banner</title>
    <desc>Created with Sketch.</desc>
    <defs></defs>
    <g id="Page-1" stroke="none" stroke-width="1" fill="none" fill-rule="evenodd">
        <g id="banner" transform="translate(-16.000000, -21.000000)">
            <path d="M505.992643,181.041452 L382.19328,252.517047 L382.19328,395.468239 L505.992643,466.943834 L629.792006,395.468239 L629.792006,252.517047 L505.992643,181.041452 Z" id="Polygon" stroke="#343334" stroke-width="7"></path>
            <g id="noun_663017_cc" transform="translate(441.000000, 248.000000)" fill="#343334" fill-rule="nonzero">
                <g id="Group">
                    <path d="M40.9798824,76.4386835 C41.9662353,76.4386835 42.9525882,76.0634937 43.7039118,75.3111899 C45.2084853,73.8085063 45.2084853,71.3726582 43.7039118,69.8699747 C37.8821176,64.0554937 34.6764706,56.3246582 34.6764706,48.1012658 C34.6764706,39.8778734 37.8821176,32.147038 43.7039118,26.332557 C45.2084853,24.8298734 45.2084853,22.3940253 43.7039118,20.8913418 C42.2012647,19.3886582 39.7585,19.3886582 38.2558529,20.8913418 C30.9776471,28.158481 26.9705882,37.8229873 26.9705882,48.1012658 C26.9705882,58.3795443 30.9776471,68.0440506 38.2558529,75.3111899 C39.0071765,76.0634937 39.9935294,76.4386835 40.9798824,76.4386835 Z" id="Shape"></path>
                    <path d="M24.6337794,88.9161519 C13.7183971,78.0164051 7.70588235,63.5206076 7.70588235,48.1012658 C7.70588235,32.6838481 13.7183971,18.1899747 24.6337794,7.28637975 C26.1383529,5.7836962 26.1383529,3.3478481 24.6337794,1.84516456 C23.1292059,0.342481013 20.6883676,0.342481013 19.1857206,1.84516456 C6.81392647,14.2014177 0,30.628962 0,48.1012658 C0,65.5774177 6.81392647,82.003038 19.1837941,94.3573671 C19.9370441,95.1096709 20.9214706,95.4848608 21.9078235,95.4848608 C22.8941765,95.4848608 23.8805294,95.1096709 24.6337794,94.3573671 C26.1383529,92.8546835 26.1383529,90.4169114 24.6337794,88.9161519 Z" id="Shape"></path>
                    <path d="M87.2941618,75.3111899 C88.0474118,76.0634937 89.0318382,76.4386835 90.0181912,76.4386835 C91.0045441,76.4386835 91.9889706,76.0634937 92.7422206,75.3131139 C100.022353,68.0440506 104.029412,58.3814684 104.029412,48.1012658 C104.029412,37.8210633 100.022353,28.158481 92.7441471,20.8894177 C91.2395735,19.3886582 88.8006618,19.3867342 87.2960882,20.8894177 C85.7915147,22.3921013 85.7915147,24.8279494 87.2960882,26.332557 C93.1178824,32.147038 96.3235294,39.8778734 96.3235294,48.1012658 C96.3235294,56.3246582 93.1178824,64.0554937 87.2941618,69.8680506 C85.7895882,71.3726582 85.7895882,73.8085063 87.2941618,75.3111899 Z" id="Shape"></path>
                    <path d="M111.814279,1.84324051 C110.309706,0.340556962 107.870794,0.340556962 106.366221,1.84324051 C104.861647,3.34592405 104.861647,5.78177215 106.366221,7.2844557 C117.281603,18.1880506 123.294118,32.6838481 123.294118,48.1012658 C123.294118,63.5206076 117.281603,78.014481 106.366221,88.9161519 C104.861647,90.4169114 104.861647,92.8546835 106.366221,94.3573671 C107.119471,95.1096709 108.103897,95.4848608 109.09025,95.4848608 C110.076603,95.4848608 111.061029,95.1096709 111.814279,94.3573671 C124.186074,82.003038 131,65.5754937 131,48.1012658 C131,30.627038 124.186074,14.1994937 111.814279,1.84324051 Z" id="Shape"></path>
                    <path d="M69.3529412,70.2797975 L69.3529412,58.9740759 C73.8396912,57.3867342 77.0588235,53.124962 77.0588235,48.1012658 C77.0588235,41.724962 71.8843235,36.556962 65.5,36.556962 C59.1156765,36.556962 53.9411765,41.724962 53.9411765,48.1012658 C53.9411765,53.124962 57.1603088,57.3886582 61.6470588,58.9740759 L61.6470588,70.2797975 L23.5241324,146.429873 C22.7631765,147.951797 23.0906765,149.79119 24.3313235,150.957165 C25.0653088,151.644051 26.0131324,152 26.9705882,152 C27.6332941,152 28.3017794,151.828759 28.9047647,151.478582 L65.5,130.258228 L102.095235,151.480506 C102.698221,151.828759 103.364779,152 104.027485,152 C104.984941,152 105.934691,151.644051 106.66675,150.957165 C107.909324,149.793114 108.236824,147.951797 107.475868,146.429873 L69.3529412,70.2797975 Z M81.6264853,112.006684 L69.3529412,119.123747 L69.3529412,87.4923544 L81.6264853,112.006684 Z M61.6470588,119.123747 L49.3735147,112.006684 L61.6470588,87.4923544 L61.6470588,119.123747 Z M36.1791176,138.362329 L45.9212794,118.904405 L57.8268676,125.809823 L36.1791176,138.362329 Z M73.1731324,125.807899 L85.0787206,118.902481 L94.8208824,138.362329 L73.1731324,125.807899 Z" id="Shape"></path>
                </g>
            </g>
        </g>
    </g>
</svg>